<?xml version="1.0" encoding="UTF-8"?><svg id="Layer_2" xmlns="http://www.w3.org/2000/svg" viewBox="0 0 141.43 83.13"><defs><style>.cls-1{fill:#e64778;}.cls-2{fill:#6e4db6;}</style></defs><g id="Layer_1-2"><g><g><path class="cls-2" d="M20.37,33.45c.17,.32,.59,.01,.86,.2,4.35-1.36,8.48-3.26,12.98-4.41l-.59-3.31c-.77-4.33-1.76-8.63-2.53-12.96-.3-1.71-.95-3.36-1.25-5.07-.71-3.99,2.16-7.08,6.03-7.77,1.83-.32,4.09-.14,4.48,2.03,.16,.91-.02,1.88,.16,2.91,.22,1.25,1.35,6.94,1.16,7.91,.44,2.51,.41,4.98,.84,7.38,.3,1.71,.93,3.25,1.55,4.78,.83-.62,1.72-.89,2.75-1.07,4.1-.73,6.11-.02,6.88,4.31,.89,5.02-3.77,5.96-7.39,7.42-.22,.74-.19,1.56-.05,2.36,.26,1.48,.98,2.88,1.24,4.37,1.11,4.27,2.68,8.46,3.42,12.68,.44,2.51-.06,3.65-1.89,5.27-.93,.75-1.35,1.65-2.72,1.89-.45,.08-1.07-.05-1.54-.08-3.07-.05-3.89-2.72-4.58-5.3-1.49-6.44-2.23-11.25-4.42-17.68-3.39,1.42-7.12,2.32-10.34,4.06,1.17,2.62,7.52,16.55,7.84,18.37,.08,.46,.02,.82,0,1.29-1.5,2.15-3.81,3.73-6.43,4.2-.91,.16-1.96,.23-2.93,.05-5.59-3.01-5.85-13.78-9.42-18.68-2.42,1.61-4.91,2.16-7.76,2.67l-.57,.1c-1.66-.76-2.86-.2-3.26-2.48-.59-3.31,0-6.59,2.8-8.73,1.55-1.21,3.55-1.21,4.92-2.75C6.69,29.28,3.24,21.07,0,12.71c.08-3.54,1.58-5.69,5.23-6.34,2.17-.38,4.63,.24,6.23,1.96,2.49,7.44,5.29,18.59,8.91,25.12"/><path class="cls-2" d="M115.23,48.55c-1.25,1.65-3.35,2.2-5.44,2.64-2.16-.4-4.8-2.07-4.81-4.54l.42-2.28c1.74-9.34,.32-3.01,2.95-12.06,.67-2.35,2.35-9.46,3.01-11.1,.77-1.62,3.38-1.73,4.9-2.27,.48-.03,.93,.06,1.27,.12,2.05,.38,4.04,1.69,3.62,3.97-2.56,13.78-3.48,11.73-5.92,25.53m11.21-35.69c-2.51,1.87-4.22,2.37-7.44,1.77-1.13-.21-2.23-.59-3.24-.96-1.29-1.32-4.02-3.54-3.63-5.62,.82-4.44,6.3-8.73,10.82-7.89,4.78,.89,6.45,4.98,5.61,9.5-.31,1.65-.87,2.27-2.12,3.21"/><path class="cls-1" d="M83.79,25.01c-.85,.29-1.45,1.35-1.22,2.01,.11,.31,.77,.36,1.1,.41,.21-.04,.43-.09,.64-.16,.61-.21,.86-.43,1.14-.9,.14-.24,.19-.37,.1-.61-.23-.67-.86-1.06-1.76-.75"/><path class="cls-1" d="M102.73,24.43c-1.36-4.47-5.34-9.44-8.44-12.79-1.98-2.24-4.35-2.24-9.44-2.24-8.57,0-16.4,4.1-21.61,10.81-.87,1.12-2.11,2.61-2.73,4.1-.25,.75-.37,1.86-.62,2.61-1.24,3.73-3.23,7.2-3.23,11.05,0,.62,0,1.37,.12,1.86,.74,3.23,1.86,6.71,2.86,9.81,1.12,3.35,2.86,6.33,5.34,8.82,3.72,3.6,12.03,9.12,10.3,4.12-3.68-9.44-2.49-10.78-2.49-11.03,.25,0,7.1,1.14,16.28-1.95,2.36-.79,9.57-7.78,10.81-9.14,.75-.75,1.12-1.74,1.74-2.48,1.37-1.74,1.49-5.84,1.49-7.82,0-.99-.12-4.97-.37-5.71m-23.91,16.6c-.47,.53-1.15,.83-1.85,.86-.11-.06-.2-.1-.29-.18-.37-.33-2.62-3.71-3.05-4.35-.85,.48-1.57,1.2-2.37,1.76,1.15,1.4,2.13,2.24,3.37,3.48,.49,.52,.98,1.08,.56,1.78-.06,.11-.12,.27-.2,.36-.25,.28-.51,.25-.81,.35-.62,.19-.95,.14-1.46-.31-.85-.76-1.57-1.7-2.39-2.55-.3-.27-.51-.63-.81-.89-.16-.14-.34-.26-.54-.32-.84,.61-1.7,1.53-2.71,.63-.87-.78-.75-1.33,0-2.16,.18-.21,.37-.37,.63-.47-.26-.36-.52-.71-.86-1.02-.48-.43-1.04-.77-1.55-1.22-.24-.1-1.37-1.15-1.62-1.37-.21-.18-.45-.28-.63-.45-.44-.39-.16-.93,.17-1.29,.7-.78,1.8-.99,2.6-.27,.34,.31,.63,.68,.97,.99,.87,.78,1.7,1.61,2.57,2.39l.66,.6c.89-.85,1.9-1.52,2.82-2.31,0-.09,.12-.14,.08-.22-.97-1.73-3.09-3.93-4.42-5.53-.16-.6,.04-1.24,.43-1.68,.66-.73,1.35-.77,2.16-.29,1.44,1.9,2.81,3.84,4.09,5.86,.54-.09,.82-.55,1.31-.73,.88-.33,1.7,0,2.37,.59,.46,.41,.16,.6,.1,1.08l-.1,.12c-.51,.57-.99,1.06-1.69,1.38,.6,1.49,3,3.06,2.9,4.75-.1,.24-.26,.47-.42,.65m10.22-13.72c-.09,.22-.09,.49-.21,.72-.18,.42-3.9,1.7-4.49,1.9-.61,.21-1.24,.36-1.85,.57-.03,.01-.24,.15-.3,.17,.02,.06,.06,.17,.03,.18s-.04-.02-.05-.05l-.06,.12h-.03s-.02,.05-.05,.06c.73,1.18,1.83,2.3,3.31,2.24,.68,0,1.32-.23,2-.33,.4-.07,1.15-.07,1.32,.43,.27,.79-1.28,2.14-1.95,2.37-1.22,.42-3.45-.08-4.61-.63-.78-.38-1.43-.94-1.96-1.63-.48-.65-1.03-1.37-1.46-2.07-.07-.11-.13-.28-.18-.43-.31-.9-.13-1.88-.14-2.85,0-.19-.06-.47-.07-.66,.03-.4,.2-.85,.31-1.18,.68-1.99,2.18-3.58,4.19-4.28,1.19-.41,1.31-.16,2.39-.24,1,.54,2.33,1.38,3.01,2.32,.12,.15,.47,1.07,.55,1.31,.16,.47,.46,1.44,.28,1.95m3.54,7.82c-.58,.06-1.38-.17-1.57-.8l-.06-.61c-.25-2.51,.02-1.52,.02-4.02,0-.65-.1-2.59-.06-3.06,.08-.47,.73-.69,1.08-.94,.12-.04,.24-.05,.33-.06,.55-.05,1.16,.13,1.22,.74,.37,3.71-.18,3.98,.22,7.68-.19,.51-.69,.81-1.19,1.08m2.28-11.89c-.65,.87-1.18,1.2-2.31,1.32-.4,.04-.8,.02-1.18,0-.56-.32-1.69-.79-1.76-1.53-.16-1.56,1.26-3.53,2.85-3.69,1.68-.17,2.64,1.04,2.8,2.63,.06,.58-.07,.84-.4,1.28"/></g><g><path class="cls-2" d="M85.88,65.62c.23,.17,.5,.31,.77,.4,.24,.08,.54,.13,.74,.13,.14,0,.37-.04,.49-.14,.08-.08,.1-.16,.1-.25,0-.08-.01-.17-.1-.24-.12-.11-.31-.14-.5-.19l-.5-.12c-.26-.06-.65-.16-.94-.47-.2-.22-.35-.52-.35-.92,0-.52,.2-1,.5-1.31,.41-.42,1.13-.65,1.92-.65s1.4,.22,1.72,.35l-.65,1.22c-.26-.12-.66-.26-1.01-.26-.19,0-.32,.04-.44,.11-.11,.06-.17,.14-.17,.26,0,.17,.11,.25,.23,.3,.18,.07,.34,.07,.64,.16l.35,.1c.25,.07,.64,.26,.79,.42,.26,.25,.41,.67,.41,1.07,0,.65-.28,1.08-.54,1.33-.62,.62-1.54,.67-1.98,.67-.48,0-1.23-.06-2.16-.62l.68-1.33Z"/><path class="cls-2" d="M93.65,65.82h2.24v1.57h-5.46l2.53-3.79h-2.16v-1.57h5.35l-2.51,3.79Z"/></g><path class="cls-2" d="M98.98,58.65v5.31l1.81-1.93h2.6l-2.53,2.47,2.73,2.89h-2.66l-1.96-2.19v2.19h-1.92v-8.74h1.92Z"/><g><path class="cls-2" d="M109.43,66.68c-.71,.7-1.54,.89-2.4,.89-.78,0-1.64-.16-2.39-.89-.59-.58-.83-1.26-.83-1.98,0-.96,.43-1.58,.83-1.97,.44-.43,1.22-.89,2.39-.89s1.95,.47,2.4,.89c.4,.38,.83,1.01,.83,1.97,0,.72-.24,1.4-.83,1.98Zm-3.25-2.85c-.24,.23-.37,.56-.37,.88s.16,.64,.37,.85c.23,.23,.54,.36,.86,.36s.62-.13,.85-.36c.24-.23,.37-.54,.37-.85,0-.29-.13-.64-.37-.88-.22-.2-.55-.35-.85-.35s-.65,.14-.86,.35Z"/><path class="cls-2" d="M111.9,58.65h1.92v2.55l.96-.65v1.42l-.96,.65v4.77h-1.92v-3.97l-.96,.65v-1.42l.96-.65v-3.36Z"/><path class="cls-2" d="M119.71,62.03h1.92v5.36h-1.92v-.59c-.44,.61-1.14,.77-1.67,.77-.58,0-1.28-.17-1.93-.85-.52-.55-.77-1.16-.77-1.97,0-1.01,.4-1.71,.83-2.15,.46-.46,1.16-.76,1.93-.76,.86,0,1.38,.44,1.61,.7v-.52Zm-2.02,1.8c-.26,.25-.38,.6-.38,.88,0,.31,.13,.65,.37,.88,.2,.19,.54,.36,.86,.36s.62-.13,.86-.37c.17-.17,.36-.43,.36-.86,0-.25-.07-.59-.37-.88-.18-.17-.46-.35-.86-.35-.24,0-.56,.08-.84,.35Z"/></g><g><path class="cls-2" d="M68.75,75.03h1.92v.67c.53-.7,1.24-.79,1.7-.79,.55,0,1.14,.13,1.58,.58,.46,.46,.5,.91,.5,1.5v3.41h-1.92v-2.71c0-.31,.01-.78-.24-1.04-.18-.19-.42-.23-.61-.23-.3,0-.55,.11-.71,.25-.19,.18-.31,.53-.31,.85v2.88h-1.92v-5.36Z"/><path class="cls-2" d="M81.17,79.68c-.71,.7-1.54,.89-2.4,.89-.78,0-1.64-.16-2.39-.89-.59-.58-.83-1.26-.83-1.98,0-.96,.43-1.58,.83-1.97,.44-.43,1.22-.89,2.39-.89s1.95,.47,2.4,.89c.4,.38,.83,1.01,.83,1.97,0,.72-.24,1.4-.83,1.98Zm-3.25-2.85c-.24,.23-.37,.56-.37,.88s.16,.64,.37,.85c.23,.23,.54,.36,.86,.36s.62-.13,.85-.36c.24-.23,.37-.54,.37-.85,0-.29-.13-.64-.37-.88-.22-.2-.55-.35-.85-.35s-.65,.14-.86,.35Z"/><path class="cls-2" d="M83.1,75.03h1.92v.88c.19-.36,.47-.6,.76-.74,.29-.16,.64-.22,1-.22,.05,0,.13,.01,.38,.02v1.81c-.1-.05-.36-.19-.83-.19-.25,0-.6,.04-.88,.29-.41,.37-.43,.94-.43,1.22v2.29h-1.92v-5.36Z"/><path class="cls-2" d="M89.5,75.03l1.27,2.83,1.36-2.83h1.18l1.36,2.92,1.34-2.92h2.13l-2.81,5.36h-1.3l-1.34-2.95-1.28,2.95h-1.3l-2.76-5.36h2.15Z"/><path class="cls-2" d="M104.49,78.06h-3.99c0,.29,.11,.67,.34,.9,.12,.12,.36,.26,.79,.26,.05,0,.38-.01,.62-.14,.12-.07,.25-.19,.34-.36h1.83c-.08,.3-.25,.72-.65,1.1-.4,.38-1.02,.74-2.18,.74-.71,0-1.56-.16-2.22-.82-.35-.35-.79-1.01-.79-2.03,0-.9,.34-1.62,.8-2.08,.44-.43,1.14-.78,2.19-.78,.62,0,1.43,.13,2.06,.73,.76,.72,.85,1.66,.85,2.25v.2Zm-1.76-1.1c-.05-.2-.17-.43-.31-.58-.25-.25-.6-.29-.79-.29-.32,0-.58,.08-.78,.29-.13,.14-.25,.34-.29,.58h2.17Z"/><path class="cls-2" d="M105.94,78.61c.23,.17,.5,.31,.77,.4,.24,.08,.54,.13,.74,.13,.14,0,.37-.04,.49-.14,.08-.08,.1-.16,.1-.25,0-.08-.01-.17-.1-.24-.12-.11-.31-.14-.5-.19l-.5-.12c-.26-.06-.65-.16-.94-.47-.2-.22-.35-.52-.35-.92,0-.52,.2-1,.5-1.31,.41-.42,1.13-.65,1.92-.65s1.4,.22,1.72,.35l-.65,1.22c-.26-.12-.66-.26-1.01-.26-.19,0-.32,.04-.44,.11-.11,.06-.17,.14-.17,.26,0,.17,.11,.25,.23,.3,.18,.07,.34,.07,.64,.16l.35,.1c.25,.07,.64,.26,.79,.42,.26,.25,.41,.67,.41,1.07,0,.65-.28,1.08-.54,1.33-.62,.62-1.54,.67-1.98,.67-.48,0-1.23-.06-2.16-.62l.68-1.33Z"/></g><path class="cls-2" d="M112.84,71.64v5.31l1.81-1.93h2.6l-2.53,2.47,2.73,2.89h-2.66l-1.96-2.19v2.19h-1.92v-8.74h1.92Z"/><g><path class="cls-2" d="M118.79,71.72c.6,0,1.08,.48,1.08,1.08s-.48,1.08-1.08,1.08-1.08-.48-1.08-1.08,.48-1.08,1.08-1.08Zm.96,3.31v5.36h-1.92v-5.36h1.92Z"/><path class="cls-2" d="M126.75,78.06h-3.99c0,.29,.11,.67,.34,.9,.12,.12,.36,.26,.79,.26,.05,0,.38-.01,.62-.14,.12-.07,.25-.19,.34-.36h1.83c-.08,.3-.25,.72-.65,1.1-.4,.38-1.02,.74-2.18,.74-.71,0-1.56-.16-2.22-.82-.35-.35-.79-1.01-.79-2.03,0-.9,.34-1.62,.8-2.08,.44-.43,1.14-.78,2.19-.78,.62,0,1.43,.13,2.06,.73,.76,.72,.85,1.66,.85,2.25v.2Zm-1.76-1.1c-.05-.2-.17-.43-.31-.58-.25-.25-.6-.29-.79-.29-.32,0-.58,.08-.78,.29-.13,.14-.25,.34-.29,.58h2.17Z"/><path class="cls-2" d="M133.89,75.03v5.03c0,.8-.07,1.54-.73,2.22-.68,.7-1.58,.86-2.36,.86-1,0-1.82-.25-2.51-.95-.31-.32-.52-.65-.59-1.12h2.13c.07,.22,.26,.55,.9,.55,.3,0,.6-.06,.85-.3,.32-.3,.38-.68,.38-1v-.54c-.6,.64-1.18,.71-1.61,.71-.98,0-1.62-.38-1.98-.76-.48-.49-.74-1.22-.74-1.96,0-.84,.32-1.61,.79-2.1,.52-.54,1.24-.82,1.94-.82,.34,0,1.03,.07,1.6,.71v-.55h1.92Zm-3.91,1.8c-.28,.29-.37,.61-.37,.86,0,.31,.13,.64,.37,.88,.25,.25,.58,.35,.86,.35s.64-.13,.86-.36c.24-.24,.36-.59,.36-.86s-.16-.65-.38-.88c-.22-.22-.53-.35-.85-.35s-.6,.11-.85,.36Z"/><path class="cls-2" d="M140.61,79.68c-.71,.7-1.54,.89-2.4,.89-.78,0-1.64-.16-2.39-.89-.59-.58-.83-1.26-.83-1.98,0-.96,.43-1.58,.83-1.97,.44-.43,1.22-.89,2.39-.89s1.95,.47,2.4,.89c.4,.38,.83,1.01,.83,1.97,0,.72-.24,1.4-.83,1.98Zm-3.25-2.85c-.24,.23-.37,.56-.37,.88s.16,.64,.37,.85c.23,.23,.54,.36,.86,.36s.62-.13,.85-.36c.24-.23,.37-.54,.37-.85,0-.29-.13-.64-.37-.88-.22-.2-.55-.35-.85-.35s-.65,.14-.86,.35Z"/></g></g></g></svg>